<svg xmlns="http://www.w3.org/2000/svg" width="2000" height="2000" viewBox="0 0 1500 1500"><defs><clipPath id="b"><path d="M0 0h1500v1498H0Zm0 0"/></clipPath><clipPath id="a"><path d="M0 0h1500v1500H0z"/></clipPath><clipPath id="c"><path d="M273 152h881v534H273Zm0 0"/></clipPath><clipPath id="d"><path d="m371 686-25-9-17-13a106 106 0 0 1-27-36l-13-29q-3-7-5-19a455 455 0 0 1-7-167l4-15 5-15a815 815 0 0 1 42-82l7-10a466 466 0 0 1 81-79l18-13 27-13 10-3c9-3 31-14 40-16l10-2c10-2 37-4 51-5l22-1 50-5 32-1h100l12 1 10 2 50 13 25 5a258 258 0 0 1 50 15c14 4 33 11 46 17l21 9 62 32 25 15c12 8 29 23 39 31l15 12 7 7 5 7 9 9 1 3v3a11 11 0 0 1-21 3l-1-3a11 11 0 0 1 4-9l3-2 4-1 3 1 4 1 2 3 2 3v3l-1 4-1 3-3 2-3 2h-4l-3-1-3-2 1-1-8-5-6-9-7-6-39-32-15-12-18-10-87-43a992 992 0 0 0-90-30l-22-4-51-13-12-2a1801 1801 0 0 0-251 11l-11 1a627 627 0 0 0-87 38l-17 14-37 36-30 30-13 21-8 15c-5 8-12 23-16 34q-6 12-9 23l-8 27-1 15 2 93 4 25a332 332 0 0 0 18 57l21 33 16 14 10 4 14 4 3 3 2 6-2 5-3 2z"/></clipPath><clipPath id="f"><path d="M1 0h880v534H1Zm0 0"/></clipPath><clipPath id="g"><path d="m99 534-25-9-17-13a106 106 0 0 1-27-36l-13-29q-3-7-5-19a455 455 0 0 1-7-167l4-15 5-15a815 815 0 0 1 42-82l7-10a466 466 0 0 1 81-79l18-13 27-13 10-3c9-3 31-14 40-16l10-2c10-2 37-4 51-5l22-1 50-5 32-1h100l12 1 10 2 50 13 25 5a258 258 0 0 1 50 15c14 4 33 11 46 17l21 9 62 32 25 15c12 8 29 23 39 31l15 12 7 7 5 7 9 9 1 3v3a11 11 0 0 1-21 3l-1-3a11 11 0 0 1 4-9l3-2 4-1 3 1 4 1 2 3 2 3v3l-1 4-1 3-3 2-7 2-3-1-3-2 1-1-8-5-6-9-7-6-39-32-15-12-18-10-87-43a992 992 0 0 0-90-30l-22-4-51-13-12-2a1801 1801 0 0 0-251 11l-11 1a627 627 0 0 0-87 38l-17 14-37 36-30 30-13 21-8 15c-5 8-12 23-16 34q-6 12-9 23l-8 27-1 15 2 93 4 25a332 332 0 0 0 18 57l21 33 16 14 10 4 14 4 3 3 2 6-2 5-3 2z"/></clipPath><clipPath id="e"><path d="M0 0h882v534H0z"/></clipPath><clipPath id="h"><path d="M380 374h833v326H380Zm0 0"/></clipPath><clipPath id="i"><path d="m390 671 67 7 22 2 73-3 10-3 8-5 8-6 13-15 22-18 20-21 17-25 27-33 7-7 22-20 24-26 53-46 26-17 21-14a533 533 0 0 1 106-45h9c17-1 85-3 110-2l31 4h23l11 2 13 2 46 15c11 2 23 4 28 7l5 4 1 7-3 5-3 2-7 1-5-3-2-3v-7l1-3 5-4h7l5 4 2 6q-1 5-3 6 0 2-2 3l-6 1q-10-1-24-6l-45-13-20-5-30-1-33-4-31 1-23 1-53-1-11 1-9 4-16 6-30 14-30 15c-16 9-45 28-54 35l-8 6-15 13-17 15-33 35-24 22-13 16-20 25q-8 13-17 23-5 8-13 14l-31 28-16 16-8 5-26 10-10 1h-70l-22-2-33-6c-10-1-24 0-30-2l-5-3q-2-3-1-7 0-3 3-5c1-2 6-3 6-3"/></clipPath><clipPath id="k"><path d="M0 0h833v326H0Zm0 0"/></clipPath><clipPath id="l"><path d="m10 297 67 7 22 2 73-3 10-3 8-5 8-6 13-15 22-18 20-21 17-25 27-33 7-7 22-20 24-26 53-46 26-17 21-14A533 533 0 0 1 556 2h9c17-1 85-3 110-2l31 4h23l11 2 13 2 46 15c11 2 23 4 28 7l5 4 1 7-3 5-3 2-7 1-5-3-2-3v-7l1-3 5-4h7l5 4 2 6q-1 5-3 6 0 2-2 3l-6 1q-10-1-24-6l-45-13-20-5-30-1-33-4-31 1-23 1-53-1-11 1-9 4-16 6-30 14-30 15c-16 9-45 28-54 35l-8 6-15 13-17 15-33 35-24 22-13 16-20 25-17 23q-5 8-13 14l-31 28-16 16-8 5-26 10-10 1H92l-22-2-33-6c-10-1-24 0-30-2l-5-3q-2-3-1-7 0-3 3-5c1-2 6-3 6-3"/></clipPath><clipPath id="j"><path d="M0 0h833v326H0z"/></clipPath><clipPath id="m"><path d="M1135 326h92v100h-92Zm0 0"/></clipPath><clipPath id="n"><path d="M1149 328a278 278 0 0 1 61 64l6 9q6 4 9 10 2 3 1 6 0 4-3 6-2 3-6 3l-7-1-4-6-1-3 2-6 2-3 7-2h3l6 5 1 3v6q-2 4-5 6l-6 1-6-3c-6-4-14-17-21-27-9-12-21-29-31-38-6-7-15-12-18-15l-3-3-1-5 2-6 6-3z"/></clipPath><clipPath id="p"><path d="M1 0h92v100H1Zm0 0"/></clipPath><clipPath id="q"><path d="M15 2a278 278 0 0 1 61 64l6 9q6 4 9 10 2 3 1 6 0 4-3 6-2 3-6 3l-7-1-4-6-1-3 2-6 2-3 7-2h3l6 5 1 3v6q-2 5-5 6l-6 1-6-3c-6-4-14-17-21-27-9-12-21-29-31-38-6-7-15-12-18-15l-3-3-1-5 2-6 6-3z"/></clipPath><clipPath id="o"><path d="M0 0h93v101H0z"/></clipPath><clipPath id="r"><path d="M373 346h287v340H373Zm0 0"/></clipPath><clipPath id="s"><path d="M373 677c2-31 2-34 4-40l13-41 15-57a344 344 0 0 1 27-58 319 319 0 0 1 44-49q12-12 24-21l14-15 17-13 40-21a467 467 0 0 1 61-14q10-2 19-1l6 3 3 6-1 7-5 4-7 1-5-4q-3-2-3-6l1-3 3-6 7-2 6 2 4 6v3l-2 6-6 4h-19l-20 3-42 13-18 10-26 17-22 21-15 14a282 282 0 0 0-52 62l-18 44-12 50c-4 14-11 30-13 40l-3 11-1 24-1 4q-2 3-5 4h-6l-4-2z"/></clipPath><clipPath id="u"><path d="M1 0h287v340H1Zm0 0"/></clipPath><clipPath id="v"><path d="M1 331c2-31 2-34 4-40l13-41 15-57a344 344 0 0 1 27-58 319 319 0 0 1 44-49q12-12 24-21l14-15 17-13 40-21a467 467 0 0 1 61-14q10-2 19-1l6 3 3 6-1 7-5 4-7 1-5-4q-3-2-3-6l1-3 3-6 7-2 6 2 4 6v3l-2 6-6 4h-19l-20 3-42 13-18 10-26 17-22 21-15 14a282 282 0 0 0-52 62l-18 44-12 50c-4 14-11 30-13 40l-3 11-1 24-1 4q-2 4-5 4H7l-4-2z"/></clipPath><clipPath id="t"><path d="M0 0h289v340H0z"/></clipPath><clipPath id="w"><path d="M349 739h855v588H349Zm0 0"/></clipPath><clipPath id="x"><path d="m537 572 736 262-220 619-736-262Zm0 0"/></clipPath><clipPath id="y"><path d="M792 879a558 558 0 0 1 28-67l8-10 8-7c6-6 19-15 26-20l12-8a314 314 0 0 1 116-28l22 4a992 992 0 0 1 104 38l10 9 11 9a204 204 0 0 1 42 63 273 273 0 0 1 24 82l1 24a589 589 0 0 1-8 76l-7 23-22 61-8 13a459 459 0 0 1-51 65l-8 7-28 21-18 13-18 11-61 31q-21 12-43 19-21 8-46 11c-20 4-48 5-69 6q-26 2-50 1l-42-5c-13-1-29-1-39-3l-13-3-58-20-18-5c-17-6-66-22-84-31l-20-12-9-5-18-12-18-16-39-30-10-7-8-7-22-24-16-31q-4-5-4-12 3-7 11-11c6-2 16 3 21 3l11-1 12 1 23 5 73 11a284 284 0 0 0 66-5c16-3 38-6 53-11q19-7 30-14l10-5 9-6a339 339 0 0 0 65-81c16-27 37-80 48-102l11-22 23-41 13-15 3-2h4a12 12 0 0 1 12 8v8l-2 3-3 3-4 1-4 1a12 12 0 0 1-9-6l-2-8 1-4 3-3 7-3 7 1 3 3 2 3 1 4v4l-2 3-8 10-6 9-25 46-8 20-10 19-17 40a295 295 0 0 1-26 46 479 479 0 0 1-48 60l-15 15-19 11-31 14-11 4-80 15a356 356 0 0 1-119-11l-21-4-12-1-11 1q-7-2-10-7c-1-3 2-10 4-11 2 0 7 16 10 22l13 19 7 7a1151 1151 0 0 0 120 91c17 8 39 14 55 20l33 11 12 3c13 3 45 16 58 20l12 3 28 1q19 4 42 5 22 1 49-1c22 0 55-2 72-4l21-5 24-8c16-5 42-19 58-26l30-15 21-13a745 745 0 0 0 64-49 356 356 0 0 0 36-47l11-20a657 657 0 0 0 30-97l3-36v-25a159 159 0 0 0-7-45 235 235 0 0 0-53-96l-10-9-10-8-11-5c-14-5-59-22-78-27l-24-5-10 1a306 306 0 0 0-99 27 185 185 0 0 0-42 35l-6 9-5 10c-3 9-11 35-15 41l-2 5-7 2-5-1-5-5z"/></clipPath><clipPath id="A"><path d="M0 0h855v588H0Zm0 0"/></clipPath><clipPath id="B"><path d="M188-167 924 95 704 714-32 452Zm0 0"/></clipPath><clipPath id="C"><path d="M443 140a558 558 0 0 1 28-67l8-10 8-7c6-6 19-15 26-20l12-8A314 314 0 0 1 641 0l22 4a992 992 0 0 1 104 38l10 9 11 9a204 204 0 0 1 42 63 273 273 0 0 1 24 82l1 24a589 589 0 0 1-8 76l-7 23-22 61-8 13a459 459 0 0 1-51 65l-8 7-28 21-18 13-18 11-61 31q-21 12-43 19-21 8-46 11c-20 4-48 5-69 6q-26 2-50 1l-42-5c-13-1-29-1-39-3l-13-3-58-20-18-5c-17-6-66-22-84-31l-20-12-9-5-18-12-18-16-39-30-10-7-8-7-22-24-16-31q-4-5-4-12 3-7 11-11c6-2 16 3 21 3l11-1 12 1 23 5 73 11a284 284 0 0 0 66-5c16-3 38-6 53-11q19-7 30-14l10-5 9-6a339 339 0 0 0 65-81c16-27 37-80 48-102l11-22 23-41 13-15 3-2h4a12 12 0 0 1 12 8v8l-2 3-3 3-4 1-4 1a12 12 0 0 1-9-6l-2-8 1-4 3-3 7-3 7 1 3 3 2 3 1 4v4l-2 3-8 10-6 9-25 46-8 20-10 19-17 40a295 295 0 0 1-26 46 479 479 0 0 1-48 60l-15 15-19 11-31 14-11 4-80 15a356 356 0 0 1-119-11l-21-4-12-1-11 1q-7-2-10-7c-1-3 2-10 4-11 2 0 7 16 10 22l13 19 7 7a1151 1151 0 0 0 120 91c17 8 39 14 55 20l33 11 12 3c13 3 45 16 58 20l12 3 28 1q19 4 42 5 22 1 49-1c22 0 55-2 72-4l21-5 24-8c16-5 42-19 58-26l30-15 21-13a745 745 0 0 0 64-49 356 356 0 0 0 36-47l11-20a657 657 0 0 0 30-97l3-36v-25a159 159 0 0 0-7-45 235 235 0 0 0-53-96l-10-9-10-8-11-5c-14-5-59-22-78-27l-24-5-10 1a306 306 0 0 0-99 27 185 185 0 0 0-42 35l-6 9-5 10c-3 9-11 35-15 41l-2 5-7 2-5-1-5-5z"/></clipPath><clipPath id="z"><path d="M0 0h855v588H0z"/></clipPath><clipPath id="D"><path d="M884 754h190v381H884Zm0 0"/></clipPath><clipPath id="E"><path d="m1018 744 94 33-138 388-94-34Zm0 0"/></clipPath><clipPath id="F"><path d="M1055 761a178 178 0 0 1 16 48l2 34-1 22a476 476 0 0 1-31 110l-5 12-23 40-22 27c-10 12-24 29-38 41-14 13-34 29-46 35q-11 6-17 4c-4-2-5-11-5-15l1-3 3-3 3-2 4-1h4a12 12 0 0 1 9 12l-1 3-2 4-2 2-4 2h-8l-5-5-2-4v-3l3-7a12 12 0 0 1 14-3 12 12 0 0 1 6 9v4s-2-7-5-9-12 0-13-2l9-8 35-24 8-7 31-35 23-29 12-19 11-23c6-14 15-40 19-54l6-24 5-24 2-11-1-23-1-24-5-22-8-17-1-5 4-7 6-2h5z"/></clipPath><clipPath id="H"><path d="M1 0h189v381H1Zm0 0"/></clipPath><clipPath id="I"><path d="m134-10 94 33L90 411l-94-34Zm0 0"/></clipPath><clipPath id="J"><path d="M171 7a178 178 0 0 1 16 48l2 34-1 22a476 476 0 0 1-31 110l-5 12-23 40-22 27c-10 12-24 29-38 41-14 13-34 29-46 35q-11 6-17 4c-4-2-5-11-5-15l1-3 3-3 3-2 4-1h4a12 12 0 0 1 9 12l-1 3-2 4-2 2-4 2H8l-5-5-2-4v-3l3-7a12 12 0 0 1 14-3 12 12 0 0 1 6 9v4s-2-7-5-9-12 0-13-2l9-8 35-24 8-7 31-35 23-29 12-19 11-23c6-14 15-40 19-54l6-24 5-24 2-11-1-23-1-24-5-22-8-17-1-5 4-7 6-2h5z"/></clipPath><clipPath id="G"><path d="M0 0h190v381H0z"/></clipPath><clipPath id="K"><path d="M272 150h872v539H272Zm0 0"/></clipPath><clipPath id="L"><path d="M273 470c10-56 16-67 21-79l14-35 17-39q10-18 22-33l28-31 25-30q15-14 34-27a222 222 0 0 1 80-28l38-6 38-5 40-4a693 693 0 0 1 117 2l40 8 4 2 1-1c3-1 36 1 50 6 14 4 23 13 36 18q23 9 47 15l36 10 37 11q20 5 39 14 17 9 32 20l33 23c11 8 27 12 34 24 8 15 11 48 4 63-6 11-22 18-34 20s-26-4-38-7c-10-3-19-9-27-8-7 0-11 6-18 8-10 2-26 2-38 3h-38q-22 0-44 3-19 6-38 15-18 6-34 15-15 12-28 27-18 11-34 24-14 12-27 26c-9 10-15 24-25 34-9 9-23 17-31 22l-10 7q-4 5-7 13l-20 33c-8 11-17 24-26 31-9 6-24 6-28 11-2 3 2 7 1 11-4 8-21 30-31 31-6 1-10-12-18-13-11-2-30 11-44 14q-20 1-38-1-20 0-38-3-19-1-39-5-20-6-39-17-19-12-32-27c-7-10-7-25-13-33-5-8-13-10-18-17-6-10-10-26-12-39q-2-19-1-38z"/></clipPath><clipPath id="N"><path d="M0 0h871v539H0Zm0 0"/></clipPath><clipPath id="O"><path d="M1 320c10-56 16-67 21-79l14-35 17-39q10-18 22-33l28-31 25-30q16-14 34-27a222 222 0 0 1 80-28l38-6 38-5 40-4a693 693 0 0 1 117 2l40 8 4 2 1-1c3-1 36 1 50 6 14 4 23 13 36 18q23 9 47 15l36 10 37 11q20 6 39 14 17 9 32 20l33 23c11 8 27 12 34 24 8 15 11 48 4 63-6 11-22 18-34 20s-26-4-38-7c-10-3-19-9-27-8-7 0-11 6-18 8-10 2-26 2-38 3h-38q-22 0-44 3-19 6-38 15-18 6-34 15-15 12-28 27-18 11-34 24-14 12-27 26c-9 10-15 24-25 34-9 9-23 17-31 22l-10 7q-4 5-7 13l-20 33c-8 11-17 24-26 31-9 6-24 6-28 11-2 3 2 7 1 11-4 8-21 30-31 31-6 1-10-12-18-13-11-2-30 11-44 14q-20 1-38-1-20 0-38-3-19-1-39-5-20-6-39-17-19-12-32-27c-7-10-7-25-13-33-5-8-13-10-18-17-6-10-10-26-12-39q-2-19-1-38z"/></clipPath><clipPath id="M"><path d="M0 0h872v539H0z"/></clipPath><clipPath id="P"><path d="M738 284h316v158H738Zm0 0"/></clipPath><clipPath id="Q"><path d="m761 368 56-24 36-17 38-14c21-7 55-19 76-23 15-3 39-5 39-5l-13 4c0-1 9-4 13-4a43 43 0 0 1 47 40q1 8-1 14a43 43 0 0 1-67 23 44 44 0 0 1-17-37 44 44 0 0 1 21-34q6-4 13-5a43 43 0 0 1 51 49 43 43 0 0 1-24 31q-11 3-29 5a1039 1039 0 0 0-113 30l-35 17-42 12-18 8-9 3h-9a41 41 0 0 1-18-5l-12-13a38 38 0 0 1 9-50z"/></clipPath><clipPath id="S"><path d="M0 0h316v158H0Zm0 0"/></clipPath><clipPath id="T"><path d="m23 84 56-24 36-17 38-14c21-7 55-19 76-23 15-3 39-5 39-5l-13 4c0-1 9-4 13-4a43 43 0 0 1 47 40q1 8-1 14a43 43 0 0 1-67 23 44 44 0 0 1-17-37 44 44 0 0 1 21-34q6-4 13-5a43 43 0 0 1 51 49 43 43 0 0 1-24 31q-11 3-29 5a1039 1039 0 0 0-113 30l-35 17-42 12-18 8-9 3h-9a41 41 0 0 1-18-5L6 139a38 38 0 0 1 9-50z"/></clipPath><clipPath id="R"><path d="M0 0h316v158H0z"/></clipPath><clipPath id="U"><path d="M866 1090h75v76h-75Zm0 0"/></clipPath><clipPath id="V"><path d="M941 1128c-3 16-5 20-7 23a39 39 0 0 1-20 14 39 39 0 0 1-24-2q-6-1-11-6a39 39 0 0 1-12-21l-1-12a37 37 0 0 1 10-21 37 37 0 0 1 34-12 39 39 0 0 1 21 12l7 10a39 39 0 0 1 2 23 37 37 0 0 1-12 21l-10 6a40 40 0 0 1-24 2 38 38 0 0 1-26-25l-2-12 1-9a37 37 0 0 1 15-22 39 39 0 0 1 26-6 40 40 0 0 1 17 6l6 6a39 39 0 0 1 9 16z"/></clipPath><clipPath id="X"><path d="M0 0h75v76H0Zm0 0"/></clipPath><clipPath id="Y"><path d="M75 38c-3 16-5 20-7 23a39 39 0 0 1-20 14 39 39 0 0 1-24-2q-6-1-11-6A39 39 0 0 1 1 46L0 34a37 37 0 0 1 10-21A37 37 0 0 1 44 1a39 39 0 0 1 21 12l7 10a39 39 0 0 1 2 23 37 37 0 0 1-12 21q-5 5-10 6a40 40 0 0 1-24 2A38 38 0 0 1 2 50L0 38l1-9A37 37 0 0 1 16 7a39 39 0 0 1 26-6 40 40 0 0 1 17 6l6 6a39 39 0 0 1 9 16z"/></clipPath><clipPath id="W"><path d="M0 0h76v76H0z"/></clipPath><clipPath id="Z"><path d="M486 754h710v566H486Zm0 0"/></clipPath><clipPath id="aa"><path d="M487 1182c26-50 41-58 54-64q18-9 36-14l37-11 37-13 40-15 3 1v-3l1-10 7-16 7-7 8-4s10-2 14-7c6-6 7-20 11-31l15-37 18-38 13-36a263 263 0 0 1 40-66 174 174 0 0 1 69-44q18-8 36-11 20-2 40-1h38l38 3q20 4 38 13 16 10 30 23l29 27q12 14 22 32 12 18 20 37 7 20 7 41v38l-4 37-6 37q0 21-4 41-5 19-14 36c-7 11-20 21-26 30-4 7-3 13-7 20q-9 15-23 30a242 242 0 0 1-60 47q-16 11-36 20-20 10-42 17l-37 13q-19 9-37 14t-39 6q-19 3-40 2l-38-1-38-2-37-1-45-10-38-8-37-13-36-16q-19-7-36-18c-10-8-21-18-25-30-5-11-3-38-3-38"/></clipPath><clipPath id="ac"><path d="M0 0h710v566H0Zm0 0"/></clipPath><clipPath id="ad"><path d="M1 428c26-50 41-58 54-64q18-9 36-14l37-11 37-13 40-15 3 1v-3l1-10 7-16 7-7 8-4s10-2 14-7c6-6 7-20 11-31l15-37 18-38 13-36a263 263 0 0 1 40-66 174 174 0 0 1 69-44q18-8 36-11 20-2 40-1h38l38 3q20 4 38 13 16 10 30 23l29 27q12 14 22 32 12 18 20 37 7 20 7 41v38l-4 37-6 37q0 20-4 41-5 19-14 36c-7 11-20 21-26 30-4 7-3 13-7 20q-9 15-23 30a242 242 0 0 1-60 47q-16 11-36 20-20 10-42 17l-37 13q-19 9-37 14t-39 6q-19 3-40 2l-38-1-38-2-37-1-45-10-38-8-37-13-36-16q-19-7-36-18c-10-8-21-18-25-30-5-11-3-38-3-38"/></clipPath><clipPath id="ab"><path d="M0 0h710v566H0z"/></clipPath><clipPath id="ae"><path d="M378 1110h153v106H378Zm0 0"/></clipPath><clipPath id="af"><path d="m378 1123 1-5 2-3 5-4h8l5 3 6 6v-1l1-1v-2l1-1 2-1 1-1 2-1 1-1h3l2-1 2 1h2l1 1h2v1h7l11 4 13 3 14 3 12 3 14 1 12 2 15 5 2 1 1 1 1 1 3 7 1 1-1 2v5l-1 1-1 2-3 5-8 11-2 4v2l-4 12v7q2 8-1 14c-3 4-13 6-18 6q-8-1-15-5l-13-5-23-16-10-9-9-8-10-10-9-10-12-12-9-10-2-2-1-3z"/></clipPath><clipPath id="ah"><path d="M0 0h153v106H0Zm0 0"/></clipPath><clipPath id="ai"><path d="m0 13 1-5 2-3 5-4h3l2-1 3 1 5 3 6 6V9l1-1V6l1-1 2-1 1-1 2-1 1-1h3l2-1 4 1 1 1h2v1h7l11 4 13 3 14 3 12 3 14 1 12 2 15 5 2 1 1 1 1 1 3 7 1 1-1 2v5l-1 1-1 2-3 5-8 11-2 4v2l-4 12v7q2 8-1 14c-3 4-13 6-18 6q-7-1-15-5l-13-5-23-16-10-9-9-8-10-10-9-10-12-12-9-10-2-2-1-3z"/></clipPath><clipPath id="ag"><path d="M0 0h153v107H0z"/></clipPath><clipPath id="aj"><path d="M1108 317h92v93h-92Zm0 0"/></clipPath><clipPath id="ak"><path d="M1178 396c-17-22-19-25-23-28-5-6-18-12-19-18 0-5 6-14 10-14 3 0 7 7 10 11l9 12 9 10 10 9c4 4 10 12 9 17s-8 11-13 13q-6 3-15 0c-12-2-38-13-47-20q-7-6-9-10v-9l3-4 7-6 9 1 4 2 3 4 2 4-1 9a14 14 0 0 1-11 8h-4l-5-1-6-7-1-4v-5l5-8 8-3h5l4 2 3 4 2 4 3-2c5-1 18 6 24 10q8 3 9 7c1 4-4 12-7 13s-8-6-11-9l-19-23c-4-7-11-17-13-24q-3-8-1-13c2-5 10-10 15-10q7 1 13 7 9 7 17 17a302 302 0 0 1 32 40l1 3 1 6-2 5-4 4-3 1h-6l-5-2z"/></clipPath><clipPath id="am"><path d="M1 1h91v92H1Zm0 0"/></clipPath><clipPath id="an"><path d="M70 79C53 57 51 54 47 51c-5-6-18-12-19-18 0-5 6-14 10-14 3 0 7 7 10 11l9 12 9 10 10 9c4 4 10 12 9 17s-8 11-13 13q-6 3-15 0c-12-2-38-13-47-20q-7-6-9-10v-9l3-4 7-6 9 1 4 2 3 4 2 4-1 9a14 14 0 0 1-11 8h-4l-5-1-6-7-1-4v-5l5-8 8-3h5l4 2 3 4 2 4 3-2c5-1 18 6 24 10q8 3 9 7c1 4-4 12-7 13s-8-6-11-9L27 48c-4-7-11-17-13-24q-4-8-1-13C15 6 23 1 28 1q7 1 13 7 9 7 17 17a302 302 0 0 1 32 40l1 3 1 6-2 5-4 4-3 1h-6l-5-2z"/></clipPath><clipPath id="al"><path d="M0 0h93v93H0z"/></clipPath><clipPath id="ao"><path d="M354 307h174v441H354Zm0 0"/></clipPath><clipPath id="ap"><path d="m433 745-54-46-12-22-4-13a250 250 0 0 1-8-44l1-94q0-6 3-14a592 592 0 0 1 39-95l7-12 42-59 20-18 12-8c6-3 20-11 23-10l1 1 4-2 5-2h4l5 2 3 3 4 8-1 5-1 4-7 6-5 1-5-1-4-2a15 15 0 0 1-6-12l3-9 4-3 9-2 8 4 3 3 2 9-2 5-2 3c-4 3-18 7-24 10l-22 14-9 9-8 9-8 11-16 22a424 424 0 0 0-35 64l-16 48-3 15c-2 18-2 72 0 95q2 17 5 28l4 12q2 7 6 12l8 10 31 28 11 7 3 5 1 3v6l-3 5-2 2-5 2h-3z"/></clipPath><clipPath id="ar"><path d="M0 1h174v441H0Zm0 0"/></clipPath><clipPath id="as"><path d="m79 439-54-46-12-22-4-13a250 250 0 0 1-8-44l1-94q0-6 3-14a592 592 0 0 1 39-95l7-12 42-59 20-18 12-8c6-3 20-11 23-10l1 1 4-2 5-2h4l5 2 3 3 4 8-1 5-1 4-7 6-5 1-5-1-4-2a15 15 0 0 1-6-12l3-9 4-3 4-2h5l8 4 3 3 2 9-2 5-2 3c-4 3-18 7-24 10l-22 14-9 9-8 9-8 11-16 22a424 424 0 0 0-35 64l-16 48-3 15c-2 18-2 72 0 95q2 17 5 28l4 12q2 7 6 12l8 10 31 28 11 7 3 5 1 3v6l-3 5-2 2-5 2h-3z"/></clipPath><clipPath id="aq"><path d="M0 0h174v442H0z"/></clipPath><clipPath id="at"><path d="M907 681h181v488H907Zm0 0"/></clipPath><clipPath id="au"><path d="M931 681c29 4 31 5 36 7a196 196 0 0 1 35 21l29 28 14 22a483 483 0 0 1 29 58c3 9 9 27 11 39l3 27v41l-2 12a618 618 0 0 1-22 76l-12 23-5 13-19 38-7 10a542 542 0 0 1-54 51l-12 8-12 8q-6 4-11 5-9 2-16-3c-4-3-7-11-8-15l-1-9 1-5 3-3q1-3 4-3l4-2h5l8 5 3 4 1 4v5l-5 8-4 2-5 1-9-2-3-4-2-4-1-4 1-5 5-7 5-2 4-1 5 1 7 6c1 3 5 10 3 12-1 1-13-4-13-7-1-3 15-8 22-13l22-18 36-39 7-12 15-36 12-24 5-12 3-12 11-39 2-13v-40l-1-13q1-5-2-12c-2-10-7-26-12-39l-18-36-14-23c-7-9-20-22-27-29l-10-8c-6-4-17-11-23-13l-12-3q-8 0-15-2-2 0-5-3l-2-5v-6l1-3 3-4 6-2z"/></clipPath><clipPath id="aw"><path d="M1 1h181v488H1Zm0 0"/></clipPath><clipPath id="ax"><path d="M25 1c29 4 31 5 36 7a196 196 0 0 1 35 21l29 28 14 22a483 483 0 0 1 29 58c3 9 9 27 11 39l3 27v41l-2 12a618 618 0 0 1-22 76l-12 23-5 13-19 38-7 10a542 542 0 0 1-54 51l-12 8-12 8q-5 4-11 5-9 2-16-3c-4-3-7-11-8-15l-1-9 1-5 3-3q1-3 4-3l4-2h5l8 5 3 4 1 4v5l-5 8-4 2-5 1-9-2-3-4-2-4-1-4 1-5 5-7 5-2 4-1 5 1 7 6c1 3 5 10 3 12-1 1-13-4-13-7-1-3 15-8 22-13l22-18 36-39q4-4 7-12l15-36 12-24 5-12 3-12 11-39 2-13v-40l-1-13q1-5-2-12c-2-10-7-26-12-39l-18-36-14-23c-7-9-20-22-27-29l-10-8c-6-4-17-11-23-13l-12-3q-8 0-15-2-2 0-5-3l-2-5v-6l1-3 3-4 6-2z"/></clipPath><clipPath id="av"><path d="M0 0h182v489H0z"/></clipPath><clipPath id="ay"><path d="M936 715h132v380H936Zm0 0"/></clipPath><clipPath id="az"><path d="M953 716c26 10 29 12 32 14l22 18 16 18 15 23 22 48a248 248 0 0 1 7 49 492 492 0 0 1-3 76l-4 14-9 38-4 12-2 13-6 13-3 12-5 13q-2 6-6 11t-10 7c-5 1-14-4-17-5l-1-2-3-4-1-5v-5l2-4 4-3 4-3h9l4 2 4 4a15 15 0 0 1-5 21l-9 2-4-1-4-3-3-4-2-4 2-10 2-3 4-3 5-1h5l4 1 4 3c0 2-6 1-9 3-4 1-10 6-11 5l5-10 5-13 13-38 7-38 8-28 1-14a551 551 0 0 0-2-78l-8-25c-3-9-12-26-17-34l-8-14a235 235 0 0 0-38-37l-11-5-12-4-4-4-1-3v-6l2-5 2-2 6-3z"/></clipPath><clipPath id="aB"><path d="M0 0h132v380H0Zm0 0"/></clipPath><clipPath id="aC"><path d="M17 1c26 10 29 12 32 14a160 160 0 0 1 38 36l15 23 22 48a248 248 0 0 1 7 49 492 492 0 0 1-3 76l-4 14-9 38-4 12-2 13-6 13-3 12-5 13q-2 6-6 11t-10 7c-5 1-14-4-17-5l-1-2-3-4-1-5v-5l2-4 4-3 4-3h9l4 2 4 4a15 15 0 0 1-5 21l-9 2-4-1-4-3-3-4-2-4 2-10 2-3 4-3 5-1h5l4 1 4 3c0 2-6 1-9 3-4 1-10 6-11 5l5-10 5-13 13-38 7-38 8-28 1-14a551 551 0 0 0-2-78l-8-25c-3-9-12-26-17-34l-8-14a235 235 0 0 0-38-37l-11-5-12-4-4-4-1-3v-6l2-5 2-2 6-3z"/></clipPath><clipPath id="aA"><path d="M0 0h133v381H0z"/></clipPath><clipPath id="aD"><path d="M361 541h107v193H361Zm0 0"/></clipPath><clipPath id="aE"><path d="M450 732c-22-15-25-16-30-21l-35-37-6-12a230 230 0 0 1-16-49l-2-26 1-36 2-4 4-3a14 14 0 0 1 22 9 14 14 0 0 1-4 13l-4 3-4 1h-5l-4-1-6-7-1-9 4-8 4-2a13 13 0 0 1 10-1l7 5 2 4 1 5v39l4 28 4 13 4 11 14 23 29 28 20 15 3 5v5l-1 3-3 5-6 2h-6z"/></clipPath><clipPath id="aG"><path d="M0 0h107v193H0Zm0 0"/></clipPath><clipPath id="aH"><path d="M89 191c-22-15-25-16-30-21l-35-37-6-12A230 230 0 0 1 2 72L0 46l1-36 2-4 4-3a14 14 0 0 1 22 9 14 14 0 0 1-4 13l-4 3-4 1h-5l-4-1-6-7-1-9 4-8 4-2a13 13 0 0 1 10-1l7 5 2 4 1 5v39l4 28 4 13 4 11 14 23 29 28 20 15 3 5v5l-1 3-3 5-6 2h-6z"/></clipPath><clipPath id="aF"><path d="M0 0h108v193H0z"/></clipPath><clipPath id="aI"><path d="M365 484h113v259H365Zm0 0"/></clipPath><clipPath id="aJ"><path d="m455 737-42-62-7-10-6-12a320 320 0 0 1-25-63 229 229 0 0 1-8-96l2-4 3-4 5-1a14 14 0 0 1 13 2 14 14 0 0 1 5 13l-1 5-3 3-8 5h-5l-4-2q-3 0-4-3a14 14 0 0 1 14-23l5 1 3 4 2 4 1 4c1 8-2 33 0 49 1 13 6 30 8 39l4 12a554 554 0 0 0 33 70l8 10c7 10 27 40 30 49v6l-1 3-1 2-5 4-6 1-3-1-5-3z"/></clipPath><clipPath id="aL"><path d="M0 1h113v259H0Zm0 0"/></clipPath><clipPath id="aM"><path d="m90 254-42-62-7-10-6-12a320 320 0 0 1-25-63 229 229 0 0 1-8-96l2-4 3-4 5-1a14 14 0 0 1 13 2 14 14 0 0 1 5 13l-1 5-3 3-8 5h-5l-4-2q-3 0-4-3A14 14 0 0 1 19 2l5 1 3 4 2 4 1 4c1 8-2 33 0 49 1 13 6 30 8 39l4 12a554 554 0 0 0 33 70l8 10c7 10 27 40 30 49v6l-1 3-1 2-5 4-6 1-3-1-5-3z"/></clipPath><clipPath id="aK"><path d="M0 0h114v260H0z"/></clipPath><clipPath id="aN"><path d="M417 259h201v208H417Zm0 0"/></clipPath><clipPath id="aO"><path d="m574 320-18 4-10 7-10 8-34 36c-9 11-17 27-23 32l-5 3-4 1-6-1-6-4-3-6v-3l2-7-2-16 5-12 8-10c5-6 15-10 21-16l16-20 42-37 24-11 28-8 6-1 6 3 3 2 3 6a14 14 0 0 1-3 13l-3 3c-4 3-23 9-30 13l-12 6-19 15-20 16-21 17-10 10q-12 11-25 29c-9 13-18 35-23 47l-6 20-5 5a14 14 0 0 1-22-9v-11l2-5 7-5h9a14 14 0 0 1 10 9l-1 9-5 8-9 2-5-2-4-2-4-8v-5l4-8 4-3 9-1 4 2 4 3 2 4 1 4v9l-1 4-2 2-6 4-7 1-3-1-6-4-2-3-1-3v-7l7-21 30-58 16-18 20-20 41-34 21-15 12-7c6-4 17-8 24-11l12-5 7 1 6 4 3 6v4l-1 7-5 5-15 5-16 4a92 92 0 0 0-25 13q-10 8-22 21c-9 9-20 25-29 32l-12 7-9 9v13l-1 14-3 3-5 3-7 1-3-1-6-4-3-6 1-7 1-3 20-28 8-10 48-44 11-6 12-5 18-2 6 2 4 4 2 2v9l-4 5-5 3z"/></clipPath><clipPath id="aQ"><path d="M0 0h201v207H0Zm0 0"/></clipPath><clipPath id="aR"><path d="m157 61-18 4-10 7-10 8-34 36c-9 11-17 27-23 32l-5 3-4 1-6-1-6-4-3-6v-3l2-7-2-16 5-12 8-10c5-6 15-10 21-16l16-20 42-37 24-11 28-8 6-1 6 3 3 2 3 6a14 14 0 0 1-3 13l-3 3c-4 3-23 9-30 13l-12 6-19 15-20 16-21 17-10 10q-12 11-25 29c-9 13-18 35-23 47l-6 20-5 5a14 14 0 0 1-22-9v-11l2-5 7-5h9a14 14 0 0 1 10 9l-1 9-5 8-9 2-5-2-4-2-4-8v-5l4-8 4-3 9-1 4 2 4 3 2 4 1 4v9l-1 4-2 2-6 4-7 1-3-1-6-4-2-3-1-3v-7l7-21 30-58 16-18 20-20 41-34 21-15 12-7c6-4 17-8 24-11l12-5 7 1 6 4 3 6v4l-1 7-5 5-15 5-16 4a92 92 0 0 0-25 13q-10 8-22 21c-9 9-20 25-29 32l-12 7-9 9v13l-1 14-3 3-5 3-7 1-3-1-6-4-3-6 1-7 1-3 20-28 8-10 48-44 11-6 12-5 18-2 6 2 4 4 2 2v9l-4 5-5 3z"/></clipPath><clipPath id="aP"><path d="M0 0h201v208H0z"/></clipPath><clipPath id="aS"><path d="M804 1048h201v168H804Zm0 0"/></clipPath><clipPath id="aT"><path d="M804 1187v-3h1v-3l1-1v-1h1l1-1 1-2 1-1h1l2-1h1v-1h9v1h2l1 1h1v1l1 1 2 1 2-1 9-8 8-10 9-8 10-11 9-8 9-9 9-9 20-16 11-8 9-9 21-18 12-7q4-5 10-7c6-2 17-2 21 2q6 4 5 12 1 9-2 17-3 6-8 10l-9 9-8 12-7 10-7 10-10 10-8 10-13 9-14 6-12 6-9 4-11 8-12 7-13 8-10 8q-6 6-12 8c-5 1-13 0-15-2l-2-3-1 1c-3-1-11-6-13-9q-3-6-2-8v-1l-2-4z"/></clipPath><clipPath id="aV"><path d="M0 1h201v168H0Zm0 0"/></clipPath><clipPath id="aW"><path d="M0 140v-3h1v-3l1-1v-1h1l1-1 1-2 1-1h1l2-1h1v-1h9v1h2l1 1h1v1l1 1 2 1 2-1 9-8 8-10 9-8 10-11 9-8 9-9 9-9 20-16 11-8 9-9 21-18 12-7q4-5 10-7c6-2 17-2 21 2q5 4 5 12 1 9-2 17-2 6-8 10l-9 9-8 12-7 10-7 10-10 10-8 10-13 9-14 6-12 6-9 4-11 8-12 7-13 8-10 8q-6 6-12 8c-5 1-13 0-15-2l-2-3-1 1c-3-1-11-6-13-9l-2-8v-1l-2-4z"/></clipPath><clipPath id="aU"><path d="M0 0h201v169H0z"/></clipPath></defs><path fill="#fff" d="M-150-150h1800v1800H-150z"/><path fill="#fff" d="M-150-150h1800v1800H-150z"/><g clip-path="url(#a)"><g clip-path="url(#b)"><path fill="#1e2536" d="M-1-3h1501v1501H-1Zm0 0"/></g></g><g clip-path="url(#c)"><g clip-path="url(#d)"><g clip-path="url(#e)" transform="translate(272 152)"><g clip-path="url(#f)"><g clip-path="url(#g)"><path fill="#fb6e88" d="M-602-482h2160v2160H-602z"/></g></g></g></g></g><g clip-path="url(#h)"><g clip-path="url(#i)"><g clip-path="url(#j)" transform="translate(380 374)"><g clip-path="url(#k)"><g clip-path="url(#l)"><path fill="#fb6e88" d="M-710-704h2160v2160H-710z"/></g></g></g></g></g><g clip-path="url(#m)"><g clip-path="url(#n)"><g clip-path="url(#o)" transform="translate(1134 326)"><g clip-path="url(#p)"><g clip-path="url(#q)"><path fill="#fb6e88" d="M-1464-656H696v2160h-2160z"/></g></g></g></g></g><g clip-path="url(#r)"><g clip-path="url(#s)"><g clip-path="url(#t)" transform="translate(372 346)"><g clip-path="url(#u)"><g clip-path="url(#v)"><path fill="#fb6e88" d="M-702-676h2160v2160H-702z"/></g></g></g></g></g><g clip-path="url(#w)"><g clip-path="url(#x)"><g clip-path="url(#y)"><g clip-path="url(#z)" transform="translate(349 739)"><g clip-path="url(#A)"><g clip-path="url(#B)"><g clip-path="url(#C)"><path fill="#fb6e88" d="M187-170 927 94 705 717-35 454Zm0 0"/></g></g></g></g></g></g></g><g clip-path="url(#D)"><g clip-path="url(#E)"><g clip-path="url(#F)"><g clip-path="url(#G)" transform="translate(884 754)"><g clip-path="url(#H)"><g clip-path="url(#I)"><g clip-path="url(#J)"><path fill="#fb6e88" d="m132-14 100 35L92 414l-99-35Zm0 0"/></g></g></g></g></g></g></g><g clip-path="url(#K)"><g clip-path="url(#L)"><g clip-path="url(#M)" transform="translate(272 150)"><g clip-path="url(#N)"><g clip-path="url(#O)"><path fill="#fb6e88" d="M-2-2h873v543H-2Zm0 0"/></g></g></g></g></g><g clip-path="url(#P)"><g clip-path="url(#Q)"><g clip-path="url(#R)" transform="translate(738 284)"><g clip-path="url(#S)"><g clip-path="url(#T)"><path fill="#fb6e88" d="M-1068-614h2160v2160h-2160z"/></g></g></g></g></g><g clip-path="url(#U)"><g clip-path="url(#V)"><g clip-path="url(#W)" transform="translate(866 1090)"><g clip-path="url(#X)"><g clip-path="url(#Y)"><path fill="#fb6e88" d="M-1196-1420H964V740h-2160z"/></g></g></g></g></g><g clip-path="url(#Z)"><g clip-path="url(#aa)"><g clip-path="url(#ab)" transform="translate(486 754)"><g clip-path="url(#ac)"><g clip-path="url(#ad)"><path fill="#fb6e88" d="M-816-1084h2160v2160H-816z"/></g></g></g></g></g><g clip-path="url(#ae)"><g clip-path="url(#af)"><g clip-path="url(#ag)" transform="translate(378 1110)"><g clip-path="url(#ah)"><g clip-path="url(#ai)"><path fill="#fb6e88" d="M-708-1440h2160V720H-708z"/></g></g></g></g></g><g clip-path="url(#aj)"><g clip-path="url(#ak)"><g clip-path="url(#al)" transform="translate(1108 317)"><g clip-path="url(#am)"><g clip-path="url(#an)"><path fill="#fb6e88" d="M-1438-647H722v2160h-2160z"/></g></g></g></g></g><g clip-path="url(#ao)"><g clip-path="url(#ap)"><g clip-path="url(#aq)" transform="translate(354 306)"><g clip-path="url(#ar)"><g clip-path="url(#as)"><path fill="#1d2536" d="M-684-636h2160v2160H-684z"/></g></g></g></g></g><g clip-path="url(#at)"><g clip-path="url(#au)"><g clip-path="url(#av)" transform="translate(906 680)"><g clip-path="url(#aw)"><g clip-path="url(#ax)"><path fill="#1d2536" d="M-1236-1010H924v2160h-2160z"/></g></g></g></g></g><g clip-path="url(#ay)"><g clip-path="url(#az)"><g clip-path="url(#aA)" transform="translate(936 715)"><g clip-path="url(#aB)"><g clip-path="url(#aC)"><path fill="#1d2536" d="M-1266-1045H894v2160h-2160z"/></g></g></g></g></g><g clip-path="url(#aD)"><g clip-path="url(#aE)"><g clip-path="url(#aF)" transform="translate(361 541)"><g clip-path="url(#aG)"><g clip-path="url(#aH)"><path fill="#1d2536" d="M-691-871h2160v2160H-691z"/></g></g></g></g></g><g clip-path="url(#aI)"><g clip-path="url(#aJ)"><g clip-path="url(#aK)" transform="translate(365 483)"><g clip-path="url(#aL)"><g clip-path="url(#aM)"><path fill="#1d2536" d="M-695-813h2160v2160H-695z"/></g></g></g></g></g><g clip-path="url(#aN)"><g clip-path="url(#aO)"><g clip-path="url(#aP)" transform="translate(417 259)"><g clip-path="url(#aQ)"><g clip-path="url(#aR)"><path fill="#fb6e88" d="M-747-589h2160v2160H-747z"/></g></g></g></g></g><g clip-path="url(#aS)"><g clip-path="url(#aT)"><g clip-path="url(#aU)" transform="translate(804 1047)"><g clip-path="url(#aV)"><g clip-path="url(#aW)"><path fill="#fb6e88" d="M-1134-1377h2160V783h-2160z"/></g></g></g></g></g></svg>